<svg xmlns="http://www.w3.org/2000/svg" viewBox="0 0 140 206" width="140" height="206">
  <defs>
    <linearGradient id="pcBody" x1="0" y1="0" x2="0" y2="1">
      <stop offset="0%" stop-color="#52447E" stop-opacity=".92"/>
      <stop offset="100%" stop-color="#3C3160" stop-opacity=".92"/>
    </linearGradient>
    <linearGradient id="pcSub" x1="0" y1="0" x2="0" y2="1">
      <stop offset="0%" stop-color="#352B55"/>
      <stop offset="100%" stop-color="#2E2649"/>
    </linearGradient>
  </defs>
  <!-- hanging pin -->
  <rect x="67" y="178" width="6" height="14" rx="3" fill="#3C3160" fill-opacity=".9"/>
  <circle cx="70" cy="196" r="8" fill="#564a82"/>
  <circle cx="70" cy="194" r="8" fill="#6B5D9B"/>
  <circle cx="67" cy="191" r="2.4" fill="#fff" opacity=".5"/>
  <!-- body panel -->
  <rect x="6" y="34" width="128" height="150" rx="24" fill="url(#pcBody)"/>
  <rect x="6.75" y="34.75" width="126.5" height="148.5" rx="23.25" fill="none" stroke="#fff" stroke-opacity=".12" stroke-width="1.5"/>
  <!-- top sheen -->
  <path d="M30 35 H110 A24 24 0 0 1 128 52 V58 H12 V52 A24 24 0 0 1 30 35 Z" fill="#fff" opacity=".06"/>
  <!-- points sub-panel -->
  <rect x="16" y="116" width="108" height="56" rx="16" fill="url(#pcSub)"/>
  <rect x="16.75" y="116.75" width="106.5" height="54.5" rx="15.25" fill="none" stroke="#1F1A38" stroke-opacity=".7" stroke-width="1.5"/>
  <rect x="20" y="120" width="100" height="16" rx="8" fill="#fff" opacity=".03"/>
</svg>
