<svg xmlns="http://www.w3.org/2000/svg" viewBox="0 0 80 80" width="80" height="80">
  <defs>
    <linearGradient id="alTile" x1="0" y1="0" x2="0" y2="1">
      <stop offset="0%" stop-color="#C2ABF2"/><stop offset="100%" stop-color="#9070D6"/>
    </linearGradient>
    <linearGradient id="alHead" x1="0" y1="0" x2="0" y2="1">
      <stop offset="0%" stop-color="#9BE88C"/><stop offset="100%" stop-color="#5FC55E"/>
    </linearGradient>
  </defs>
  <rect width="80" height="80" rx="20" fill="url(#alTile)"/>
  <rect x="8" y="14" width="64" height="22" rx="11" fill="#fff" opacity=".08"/>
  <!-- antennae -->
  <path d="M30 24 Q26 12 32 9" fill="none" stroke="#6FCF67" stroke-width="3" stroke-linecap="round"/>
  <path d="M50 24 Q54 12 48 9" fill="none" stroke="#6FCF67" stroke-width="3" stroke-linecap="round"/>
  <circle cx="32" cy="8" r="3.4" fill="#FFE26B"/>
  <circle cx="48" cy="8" r="3.4" fill="#FFE26B"/>
  <!-- head -->
  <path d="M22 36 Q22 22 40 22 Q58 22 58 36 Q58 58 40 66 Q22 58 22 36Z" fill="url(#alHead)"/>
  <!-- big eyes -->
  <ellipse cx="32" cy="42" rx="6.5" ry="9" fill="#241F33" transform="rotate(18 32 42)"/>
  <ellipse cx="48" cy="42" rx="6.5" ry="9" fill="#241F33" transform="rotate(-18 48 42)"/>
  <circle cx="30" cy="39" r="2.2" fill="#fff"/>
  <circle cx="46" cy="39" r="2.2" fill="#fff"/>
  <path d="M35 56 Q40 60 45 56" fill="none" stroke="#2E7A33" stroke-width="2.6" stroke-linecap="round"/>
  <circle cx="27" cy="52" r="2.8" fill="#3FAE53" opacity=".7"/>
  <circle cx="53" cy="52" r="2.8" fill="#3FAE53" opacity=".7"/>
</svg>
